# xmcd CD database file
#
# Track frame offsets:
#	150
#	13842
#	29798
#	53150
#
# Disc length: 893 seconds
#
# Revision: 0
# Processed by: cddbd v1.5.2PL0 Copyright (c) Steve Scherf et al.
# Submitted via: CDex 1.51
#
DISCID=31037b04
DTITLE=Mia Dyson - Acoustic Home Demos
DYEAR=2007
DGENRE=Jazz
TTITLE0=Lonely
TTITLE1=The Driver
TTITLE2=Parking Lots
TTITLE3=Heavy
EXTD=YEAR: 2007
EXTT0=
EXTT1=
EXTT2=
EXTT3=
PLAYORDER=
